<svg id="Layer_1" data-name="Layer 1" xmlns="http://www.w3.org/2000/svg" viewBox="0 0 564.84 174.9"><defs><style>.cls-1{fill:#f89923;}</style></defs><title>banner-aws</title><path class="cls-1" d="M110.12,618.09V544h14.44v64.75h19.11v9.32Z" transform="translate(-105.44 -543.2)"/><path class="cls-1" d="M150.79,618.09V544H184v9.51H165.22v21.31H180v9.42H165.22v24.51h18.92v9.32Z" transform="translate(-105.44 -543.2)"/><path class="cls-1" d="M188.53,618.09,204.33,544h15.41l15.8,74.07H222.18L219.06,601H205.3l-3.21,17.1Zm18.24-25.69H217.5l-5.37-31.1Z" transform="translate(-105.44 -543.2)"/><path class="cls-1" d="M243,618.09V544H262a44.6,44.6,0,0,1,13.51,1.78,15.47,15.47,0,0,1,8.39,6.08q2.86,4.3,2.87,11.71a34.06,34.06,0,0,1-.87,8,14.94,14.94,0,0,1-3,6.08,13.45,13.45,0,0,1-5.8,3.89l11,36.48H273.67l-9.56-33.92h-6.63v33.92Zm14.44-42.43H262a16.22,16.22,0,0,0,6.68-1.14,6.82,6.82,0,0,0,3.56-3.66,16.46,16.46,0,0,0,1.08-6.45c0-3.71-.74-6.5-2.2-8.36s-4.24-2.79-8.34-2.79h-5.26Z" transform="translate(-105.44 -543.2)"/><path class="cls-1" d="M297.56,618.09V544h10l19.22,42.25V544h11.89v74.07h-9.55l-19.31-44.26v44.26Z" transform="translate(-105.44 -543.2)"/><path class="cls-1" d="M370.41,618.09,386.21,544h15.4l15.8,74.07H404.05L400.93,601H387.18L384,618.09Zm18.23-25.69h10.73L394,561.3Z" transform="translate(-105.44 -543.2)"/><path class="cls-1" d="M431.94,618.09,420.73,544h12.09l6.53,48,8.2-47.83h9.85L465.78,592l6.44-48h11.9l-11,74.07H461.39l-8.77-49.65-8.68,49.65Z" transform="translate(-105.44 -543.2)"/><path class="cls-1" d="M512.79,619.1a24.56,24.56,0,0,1-11.9-2.61,16.84,16.84,0,0,1-7.22-7.63,31.27,31.27,0,0,1-2.73-12.35l12.39-2.28a33.77,33.77,0,0,0,1.12,7.59,10.8,10.8,0,0,0,2.83,5.07,7,7,0,0,0,5,1.78q3.51,0,5-2a8.1,8.1,0,0,0,1.47-5,12.79,12.79,0,0,0-2.35-8,34.91,34.91,0,0,0-6.24-6.22l-9.94-8.23a28.3,28.3,0,0,1-6.68-7.55A19.69,19.69,0,0,1,491,561.49q0-8.79,5.46-13.54t14.92-4.75a23.43,23.43,0,0,1,9.27,1.6,14.67,14.67,0,0,1,5.9,4.43,19.43,19.43,0,0,1,3.26,6.45,35.87,35.87,0,0,1,1.37,7.64l-12.29,2a37.22,37.22,0,0,0-.83-6.22,8.47,8.47,0,0,0-2.24-4.3,6.57,6.57,0,0,0-4.73-1.55,6.14,6.14,0,0,0-4.92,2,7.23,7.23,0,0,0-1.71,4.9,10.66,10.66,0,0,0,1.66,6.17,24.52,24.52,0,0,0,4.77,5l9.85,8.14a38.84,38.84,0,0,1,8.34,9,21.86,21.86,0,0,1,3.46,12.48,17.81,17.81,0,0,1-2.48,9.42,17.4,17.4,0,0,1-6.93,6.45A22.07,22.07,0,0,1,512.79,619.1Z" transform="translate(-105.44 -543.2)"/><path class="cls-1" d="M118,718.09V654H105.44V644h39.4v10H132.46v64.1Z" transform="translate(-105.44 -543.2)"/><path class="cls-1" d="M152.25,718.09V644h14.34v31h16.09V644h14.43v74.07H182.68V684.62H166.59v33.47Z" transform="translate(-105.44 -543.2)"/><path class="cls-1" d="M209.21,718.09V644h33.15v9.51H223.64v21.31h14.73v9.42H223.64v24.51h18.92v9.32Z" transform="translate(-105.44 -543.2)"/><path class="cls-1" d="M274.84,718.09V644h14.33v31h16.09V644H319.7v74.07H305.26V684.62H289.17v33.47Z" transform="translate(-105.44 -543.2)"/><path class="cls-1" d="M327.79,718.09,343.59,644H359l15.8,74.07H361.44L358.32,701H344.57l-3.22,17.1ZM346,692.4h10.73l-5.37-31.1Z" transform="translate(-105.44 -543.2)"/><path class="cls-1" d="M382.31,718.09V644h18.91a44.6,44.6,0,0,1,13.51,1.78,15.47,15.47,0,0,1,8.39,6.08q2.88,4.3,2.88,11.71a34,34,0,0,1-.88,8,14.94,14.94,0,0,1-3,6.08,13.45,13.45,0,0,1-5.8,3.89l11,36.48H412.93l-9.56-33.92h-6.63v33.92Zm14.43-42.43h4.48a16.22,16.22,0,0,0,6.68-1.14,6.82,6.82,0,0,0,3.56-3.66,16.46,16.46,0,0,0,1.08-6.45q0-5.56-2.2-8.36T402,653.26h-5.26Z" transform="translate(-105.44 -543.2)"/><path class="cls-1" d="M436.82,718.09V644h18.63q9.65,0,15.06,2.47a14.88,14.88,0,0,1,7.71,7.59,32.06,32.06,0,0,1,2.29,13v27.06a34.3,34.3,0,0,1-2.29,13.4,15.39,15.39,0,0,1-7.61,8q-5.31,2.6-14.58,2.6Zm14.43-9.42h4.39q5,0,7.12-1.64a7.13,7.13,0,0,0,2.63-4.8,51.1,51.1,0,0,0,.49-7.73V666.15a31.23,31.23,0,0,0-.68-7.22,6.23,6.23,0,0,0-2.83-4q-2.14-1.27-6.92-1.28h-4.2Z" transform="translate(-105.44 -543.2)"/><path class="cls-1" d="M523.12,718.09,511.91,644H524l6.54,48,8.19-47.83h9.85L557,692l6.44-48h11.9l-11,74.07h-11.7l-8.78-49.65-8.68,49.65Z" transform="translate(-105.44 -543.2)"/><path class="cls-1" d="M577.83,718.09,593.63,644H609l15.8,74.07H611.48L608.36,701H594.61l-3.22,17.1Zm18.24-25.69H606.8l-5.37-31.1Z" transform="translate(-105.44 -543.2)"/><path class="cls-1" d="M640.74,718.09V689.84l-16-45.82H638.2L648,673.38,657.12,644h13.17l-15.8,45.82v28.25Z" transform="translate(-105.44 -543.2)"/></svg>